<svg width="87" height="114" viewBox="0 0 87 114" fill="none" xmlns="http://www.w3.org/2000/svg">
<path id="Vector" d="M86.3036 48.5358C84.6795 56.3848 80.2963 60.9437 73.1541 62.2125C77.6218 64.8862 80.5656 68.1649 81.9853 72.0486C83.405 75.9323 82.9424 80.6998 80.5973 86.3511C79.3846 89.2332 77.9005 91.6407 76.1449 93.5737C74.3893 95.5067 72.4786 96.9554 70.4126 97.9198C68.3466 98.8843 65.9631 99.4861 63.2621 99.7253C60.561 99.9645 57.8277 99.9069 55.0621 99.5523C52.2965 99.1977 49.1945 98.5779 45.7559 97.6928L40.7802 113.703L31.2401 110.738L36.1377 94.9791C32.8338 93.9523 30.3211 93.1484 28.5995 92.5675L23.6823 108.39L14.1422 105.425L19.1179 89.4143C18.3746 89.1833 17.2627 88.8263 15.7825 88.3433C14.3022 87.8603 13.1697 87.4969 12.385 87.253L-0.0047082 83.4025L5.4865 72.5095L12.3628 74.6465C14.4278 75.2883 15.9572 74.5931 16.951 72.5611L24.795 47.3212L25.7862 47.6292C25.5514 47.5104 25.2275 47.3867 24.8145 47.2584L30.4147 29.2388C30.7623 26.2257 29.3668 24.2314 26.2281 23.2559L19.3518 21.1189L22.5518 10.822L35.6654 14.9663C38.3086 15.7878 40.3181 16.3893 41.694 16.771L46.6112 0.948994L56.1513 3.91386L51.3317 19.422C54.7442 20.3907 57.2765 21.1318 58.9284 21.6452L63.709 6.26266L73.2491 9.22753L68.3319 25.0496C71.5035 26.3565 74.2481 27.7259 76.5657 29.1576C78.8834 30.5893 80.9241 32.2563 82.6879 34.1585C84.4517 36.0607 85.6479 38.2226 86.2767 40.6441C86.9054 43.0656 86.9144 45.6962 86.3036 48.5358ZM62.3503 78.6148C62.8186 77.108 62.9251 75.6723 62.6698 74.3077C62.4146 72.9432 61.9498 71.7431 61.2753 70.7073C60.6009 69.6715 59.6119 68.6641 58.3084 67.6853C57.0049 66.7064 55.7727 65.8989 54.6117 65.2627C53.4508 64.6265 51.9813 63.9633 50.2032 63.273C48.425 62.5826 47.0197 62.0771 45.9872 61.7562C44.9547 61.4353 43.6163 61.0423 41.972 60.5772C40.3277 60.1121 39.3403 59.8282 39.0099 59.7255L32.4147 80.9471C32.7451 81.0498 33.5059 81.2977 34.697 81.6908C35.8882 82.084 36.8761 82.4025 37.6608 82.6463C38.4455 82.8902 39.5497 83.1989 40.9734 83.5725C42.3971 83.9462 43.6311 84.2379 44.6754 84.4477C45.7198 84.6575 46.9521 84.8454 48.3724 85.0114C49.7926 85.1774 51.0297 85.2405 52.0837 85.2009C53.1376 85.1612 54.2551 85.0266 55.436 84.7969C56.617 84.5672 57.6277 84.1928 58.4684 83.6738C59.309 83.1547 60.0751 82.4748 60.7666 81.634C61.4582 80.7932 61.986 79.7868 62.3503 78.6148ZM67.2399 47.3618C67.6692 45.9805 67.7916 44.676 67.607 43.4482C67.4225 42.2204 67.0659 41.1457 66.5371 40.224C66.0084 39.3023 65.1993 38.4083 64.1099 37.5419C63.0206 36.6755 61.9921 35.9772 61.0247 35.447C60.0573 34.9169 58.8394 34.3548 57.371 33.7607C55.9026 33.1667 54.7211 32.7421 53.8267 32.4871C52.9323 32.2321 51.8107 31.9065 50.462 31.5103C49.1132 31.1141 48.2943 30.871 48.0052 30.7812L42.0149 50.0565C42.2214 50.1206 42.9305 50.3525 44.1424 50.7521C45.3542 51.1516 46.3144 51.45 47.023 51.6473C47.7316 51.8446 48.777 52.1236 50.1594 52.4843C51.5418 52.8451 52.7133 53.083 53.6739 53.1979C54.6345 53.3128 55.7695 53.4131 57.0789 53.4988C58.3883 53.5844 59.5101 53.5085 60.4444 53.271C61.3787 53.0335 62.3184 52.7058 63.2634 52.2881C64.2084 51.8703 65.0163 51.2378 65.6872 50.3906C66.3581 49.5434 66.8757 48.5338 67.2399 47.3618Z" fill="white"/>
</svg>
