<svg width="140" height="29" viewBox="0 0 140 29" fill="none" xmlns="http://www.w3.org/2000/svg">
<g id="Vector">
<path d="M44.2387 13.05V8.207H48.3862C48.7812 8.207 49.1574 8.24567 49.5147 8.323C49.8909 8.381 50.2201 8.497 50.5022 8.671C50.7844 8.845 51.0101 9.08667 51.1794 9.396C51.3487 9.70533 51.4333 10.1017 51.4333 10.585C51.4333 11.455 51.1794 12.0833 50.6715 12.47C50.1637 12.8567 49.5147 13.05 48.7247 13.05H44.2387ZM39.8091 4.669V25.375H49.5712C50.474 25.375 51.3487 25.259 52.1951 25.027C53.0603 24.795 53.8221 24.4373 54.4804 23.954C55.1576 23.4707 55.6936 22.852 56.0886 22.098C56.4837 21.3247 56.6811 20.416 56.6811 19.372C56.6811 18.0767 56.3708 16.9747 55.7501 16.066C55.1482 15.138 54.2265 14.4903 52.9851 14.123C53.8879 13.6783 54.5651 13.108 55.0165 12.412C55.4867 11.716 55.7219 10.846 55.7219 9.802C55.7219 8.83533 55.562 8.02333 55.2422 7.366C54.9413 6.70867 54.5087 6.18667 53.9444 5.8C53.3801 5.394 52.703 5.104 51.913 4.93C51.123 4.756 50.2483 4.669 49.289 4.669H39.8091ZM44.2387 21.837V16.153H49.0633C50.0226 16.153 50.7938 16.385 51.3769 16.849C51.96 17.2937 52.2515 18.0477 52.2515 19.111C52.2515 19.6523 52.1575 20.097 51.9694 20.445C51.8001 20.793 51.565 21.0733 51.264 21.286C50.9631 21.4793 50.6151 21.6243 50.2201 21.721C49.8251 21.7983 49.4113 21.837 48.9787 21.837H44.2387Z" fill="white"/>
<path d="M62.8065 17.893C62.8065 17.2937 62.8629 16.704 62.9758 16.124C63.0886 15.544 63.2767 15.0317 63.5401 14.587C63.8222 14.1423 64.189 13.7847 64.6404 13.514C65.0918 13.224 65.6561 13.079 66.3333 13.079C67.0104 13.079 67.5747 13.224 68.0261 13.514C68.4963 13.7847 68.8631 14.1423 69.1265 14.587C69.4086 15.0317 69.6061 15.544 69.719 16.124C69.8318 16.704 69.8883 17.2937 69.8883 17.893C69.8883 18.4923 69.8318 19.082 69.719 19.662C69.6061 20.2227 69.4086 20.735 69.1265 21.199C68.8631 21.6437 68.4963 22.0013 68.0261 22.272C67.5747 22.5427 67.0104 22.678 66.3333 22.678C65.6561 22.678 65.0918 22.5427 64.6404 22.272C64.189 22.0013 63.8222 21.6437 63.5401 21.199C63.2767 20.735 63.0886 20.2227 62.9758 19.662C62.8629 19.082 62.8065 18.4923 62.8065 17.893ZM58.8001 17.893C58.8001 19.0917 58.9788 20.1743 59.3361 21.141C59.6935 22.1077 60.2014 22.939 60.8597 23.635C61.518 24.3117 62.308 24.8337 63.2297 25.201C64.1514 25.5683 65.1859 25.752 66.3333 25.752C67.4806 25.752 68.5152 25.5683 69.4368 25.201C70.3773 24.8337 71.1767 24.3117 71.835 23.635C72.4934 22.939 73.0012 22.1077 73.3586 21.141C73.716 20.1743 73.8947 19.0917 73.8947 17.893C73.8947 16.6943 73.716 15.6117 73.3586 14.645C73.0012 13.659 72.4934 12.8277 71.835 12.151C71.1767 11.455 70.3773 10.9233 69.4368 10.556C68.5152 10.1693 67.4806 9.976 66.3333 9.976C65.1859 9.976 64.1514 10.1693 63.2297 10.556C62.308 10.9233 61.518 11.455 60.8597 12.151C60.2014 12.8277 59.6935 13.659 59.3361 14.645C58.9788 15.6117 58.8001 16.6943 58.8001 17.893Z" fill="white"/>
<path d="M90.1835 25.375V10.382H86.1771V18.241C86.1771 19.7683 85.9326 20.8703 85.4435 21.547C84.9545 22.2043 84.1645 22.533 83.0735 22.533C82.1143 22.533 81.4465 22.2333 81.0703 21.634C80.6941 21.0153 80.506 20.0873 80.506 18.85V10.382H76.4996V19.604C76.4996 20.532 76.5749 21.3827 76.7253 22.156C76.8946 22.91 77.1768 23.5577 77.5718 24.099C77.9668 24.621 78.5028 25.027 79.18 25.317C79.8759 25.607 80.76 25.752 81.8321 25.752C82.6785 25.752 83.5061 25.5587 84.315 25.172C85.1238 24.7853 85.7821 24.157 86.2899 23.287H86.3746V25.375H90.1835Z" fill="white"/>
<path d="M93.2242 10.382V25.375H97.2307V17.516C97.2307 15.9887 97.4752 14.8963 97.9642 14.239C98.4533 13.5623 99.2433 13.224 100.334 13.224C101.293 13.224 101.961 13.5333 102.337 14.152C102.714 14.7513 102.902 15.6697 102.902 16.907V25.375H106.908V16.153C106.908 15.225 106.823 14.384 106.654 13.63C106.504 12.8567 106.231 12.209 105.836 11.687C105.441 11.1457 104.896 10.73 104.2 10.44C103.522 10.1307 102.648 9.976 101.576 9.976C100.729 9.976 99.9016 10.179 99.0928 10.585C98.284 10.9717 97.6257 11.6 97.1178 12.47H97.0331V10.382H93.2242Z" fill="white"/>
<path d="M119.88 15.66H123.802C123.746 14.6933 123.52 13.862 123.125 13.166C122.73 12.4507 122.213 11.861 121.573 11.397C120.952 10.9137 120.238 10.556 119.429 10.324C118.639 10.092 117.811 9.976 116.946 9.976C115.761 9.976 114.708 10.179 113.786 10.585C112.864 10.991 112.084 11.5613 111.444 12.296C110.805 13.0113 110.316 13.8717 109.977 14.877C109.657 15.863 109.497 16.936 109.497 18.096C109.497 19.2173 109.676 20.2517 110.033 21.199C110.391 22.127 110.889 22.9293 111.529 23.606C112.168 24.2827 112.94 24.8143 113.842 25.201C114.764 25.5683 115.77 25.752 116.861 25.752C118.799 25.752 120.388 25.23 121.63 24.186C122.871 23.142 123.623 21.6243 123.887 19.633H120.021C119.89 20.561 119.56 21.3053 119.034 21.866C118.526 22.4073 117.792 22.678 116.833 22.678C116.212 22.678 115.686 22.533 115.253 22.243C114.821 21.953 114.473 21.5857 114.209 21.141C113.965 20.677 113.786 20.1647 113.673 19.604C113.56 19.0433 113.504 18.4923 113.504 17.951C113.504 17.3903 113.56 16.8297 113.673 16.269C113.786 15.689 113.974 15.167 114.237 14.703C114.52 14.2197 114.877 13.833 115.31 13.543C115.742 13.2337 116.278 13.079 116.918 13.079C118.629 13.079 119.617 13.9393 119.88 15.66Z" fill="white"/>
<path d="M135.969 16.269H129.451C129.47 15.979 129.526 15.6503 129.62 15.283C129.733 14.9157 129.912 14.5677 130.156 14.239C130.42 13.9103 130.758 13.6397 131.172 13.427C131.605 13.195 132.141 13.079 132.78 13.079C133.758 13.079 134.483 13.3497 134.953 13.891C135.442 14.4323 135.78 15.225 135.969 16.269ZM129.451 18.879H139.975C140.05 17.719 139.956 16.6073 139.693 15.544C139.429 14.4807 138.997 13.5333 138.395 12.702C137.812 11.8707 137.059 11.2133 136.138 10.73C135.216 10.2273 134.135 9.976 132.893 9.976C131.783 9.976 130.768 10.179 129.846 10.585C128.943 10.991 128.163 11.5517 127.504 12.267C126.846 12.963 126.338 13.7943 125.981 14.761C125.623 15.7277 125.445 16.7717 125.445 17.893C125.445 19.053 125.614 20.1163 125.952 21.083C126.31 22.0497 126.808 22.881 127.448 23.577C128.087 24.273 128.868 24.8143 129.79 25.201C130.711 25.5683 131.746 25.752 132.893 25.752C134.548 25.752 135.959 25.3653 137.125 24.592C138.291 23.8187 139.157 22.533 139.721 20.735H136.194C136.063 21.199 135.705 21.6437 135.122 22.069C134.539 22.475 133.843 22.678 133.034 22.678C131.906 22.678 131.04 22.3783 130.439 21.779C129.837 21.1797 129.507 20.213 129.451 18.879Z" fill="white"/>
<path d="M1.76387 0C0.789974 0 0.000479301 0.811484 0.000479301 1.8125C0.000479301 2.81352 0.789974 3.625 1.76387 3.625H7.64182C8.61571 3.625 9.40521 2.81352 9.40521 1.8125C9.40521 0.811484 8.61571 0 7.64182 0H1.76387Z" fill="white"/>
<path d="M17.6562 5.92991C18.57 5.58386 19.0379 4.54187 18.7012 3.60258C18.3645 2.66328 17.3508 2.18236 16.4369 2.52842L1.15425 8.3157C0.240409 8.66176 -0.227475 9.70374 0.109204 10.643C0.445884 11.5823 1.45963 12.0633 2.37348 11.7172L17.6562 5.92991Z" fill="white"/>
<path d="M17.6562 20.6843C18.57 20.3382 19.0379 19.2963 18.7012 18.357C18.3645 17.4177 17.3508 16.9367 16.4369 17.2828L1.15425 23.0701C0.240409 23.4161 -0.227475 24.4581 0.109204 25.3974C0.445884 26.3367 1.45963 26.8176 2.37348 26.4716L17.6562 20.6843Z" fill="white"/>
<path d="M11.1686 25.375C10.1947 25.375 9.40521 26.1865 9.40521 27.1875C9.40521 28.1885 10.1947 29 11.1686 29H17.0465C18.0204 29 18.8099 28.1885 18.8099 27.1875C18.8099 26.1865 18.0204 25.375 17.0465 25.375H11.1686Z" fill="white"/>
<path d="M17.6796 13.1713C18.5885 12.812 19.042 11.7633 18.6924 10.829C18.3428 9.89471 17.3225 9.42862 16.4135 9.78797L1.13084 15.8296C0.221868 16.189 -0.231592 17.2377 0.118015 18.172C0.467621 19.1063 1.48791 19.5724 2.39688 19.213L17.6796 13.1713Z" fill="white"/>
</g>
</svg>
