<svg width="42" height="55" viewBox="0 0 42 55" fill="none" xmlns="http://www.w3.org/2000/svg">
<g id="Frame 1000005405" clip-path="url(#clip0_21_3777)">
<g id="Vector">
<path d="M83.901 24.75V15.565H91.7669C92.516 15.565 93.2295 15.6383 93.9073 15.785C94.6207 15.895 95.245 16.115 95.7801 16.445C96.3152 16.775 96.7433 17.2333 97.0643 17.82C97.3854 18.4067 97.5459 19.1583 97.5459 20.075C97.5459 21.725 97.0644 22.9167 96.1012 23.65C95.138 24.3833 93.9073 24.75 92.409 24.75H83.901ZM75.5 8.855V48.125H94.0143C95.7266 48.125 97.3854 47.905 98.9907 47.465C100.632 47.025 102.076 46.3467 103.325 45.43C104.609 44.5133 105.626 43.34 106.375 41.91C107.124 40.4433 107.499 38.72 107.499 36.74C107.499 34.2833 106.91 32.1933 105.733 30.47C104.591 28.71 102.843 27.4817 100.489 26.785C102.201 25.9417 103.486 24.86 104.342 23.54C105.233 22.22 105.679 20.57 105.679 18.59C105.679 16.7567 105.376 15.2167 104.77 13.97C104.199 12.7233 103.378 11.7333 102.308 11C101.238 10.23 99.9539 9.68 98.4556 9.35C96.9573 9.02 95.2985 8.855 93.4792 8.855H75.5ZM83.901 41.415V30.635H93.0511C94.8704 30.635 96.333 31.075 97.4389 31.955C98.5448 32.7983 99.0977 34.2283 99.0977 36.245C99.0977 37.2717 98.9193 38.115 98.5626 38.775C98.2416 39.435 97.7956 39.9667 97.2249 40.37C96.6541 40.7367 95.9941 41.0117 95.245 41.195C94.4959 41.3417 93.7111 41.415 92.8906 41.415H83.901Z" fill="white"/>
<path d="M119.116 33.935C119.116 32.7983 119.223 31.68 119.437 30.58C119.651 29.48 120.008 28.5083 120.507 27.665C121.042 26.8217 121.738 26.1433 122.594 25.63C123.45 25.08 124.52 24.805 125.804 24.805C127.089 24.805 128.159 25.08 129.015 25.63C129.907 26.1433 130.602 26.8217 131.102 27.665C131.637 28.5083 132.012 29.48 132.226 30.58C132.44 31.68 132.547 32.7983 132.547 33.935C132.547 35.0717 132.44 36.19 132.226 37.29C132.012 38.3533 131.637 39.325 131.102 40.205C130.602 41.0483 129.907 41.7267 129.015 42.24C128.159 42.7533 127.089 43.01 125.804 43.01C124.52 43.01 123.45 42.7533 122.594 42.24C121.738 41.7267 121.042 41.0483 120.507 40.205C120.008 39.325 119.651 38.3533 119.437 37.29C119.223 36.19 119.116 35.0717 119.116 33.935ZM111.517 33.935C111.517 36.2083 111.856 38.2617 112.534 40.095C113.212 41.9283 114.175 43.505 115.424 44.825C116.672 46.1083 118.17 47.0983 119.918 47.795C121.666 48.4917 123.628 48.84 125.804 48.84C127.981 48.84 129.943 48.4917 131.691 47.795C133.474 47.0983 134.99 46.1083 136.239 44.825C137.487 43.505 138.451 41.9283 139.128 40.095C139.806 38.2617 140.145 36.2083 140.145 33.935C140.145 31.6617 139.806 29.6083 139.128 27.775C138.451 25.905 137.487 24.3283 136.239 23.045C134.99 21.725 133.474 20.7167 131.691 20.02C129.943 19.2867 127.981 18.92 125.804 18.92C123.628 18.92 121.666 19.2867 119.918 20.02C118.17 20.7167 116.672 21.725 115.424 23.045C114.175 24.3283 113.212 25.905 112.534 27.775C111.856 29.6083 111.517 31.6617 111.517 33.935Z" fill="white"/>
<path d="M171.038 48.125V19.69H163.439V34.595C163.439 37.4917 162.976 39.5817 162.048 40.865C161.121 42.1117 159.622 42.735 157.553 42.735C155.734 42.735 154.468 42.1667 153.754 41.03C153.041 39.8567 152.684 38.0967 152.684 35.75V19.69H145.085V37.18C145.085 38.94 145.228 40.5533 145.514 42.02C145.835 43.45 146.37 44.6783 147.119 45.705C147.868 46.695 148.885 47.465 150.169 48.015C151.489 48.565 153.165 48.84 155.199 48.84C156.804 48.84 158.374 48.4733 159.908 47.74C161.442 47.0067 162.69 45.815 163.653 44.165H163.814V48.125H171.038Z" fill="white"/>
<path d="M176.805 19.69V48.125H184.403V33.22C184.403 30.3233 184.867 28.2517 185.794 27.005C186.722 25.7217 188.22 25.08 190.289 25.08C192.108 25.08 193.375 25.6667 194.088 26.84C194.802 27.9767 195.158 29.7183 195.158 32.065V48.125H202.757V30.635C202.757 28.875 202.596 27.28 202.275 25.85C201.99 24.3833 201.473 23.155 200.723 22.165C199.974 21.1383 198.94 20.35 197.62 19.8C196.336 19.2133 194.677 18.92 192.643 18.92C191.038 18.92 189.469 19.305 187.935 20.075C186.401 20.8083 185.152 22 184.189 23.65H184.028V19.69H176.805Z" fill="white"/>
<path d="M227.359 29.7H234.797C234.69 27.8667 234.262 26.29 233.513 24.97C232.764 23.6133 231.783 22.495 230.57 21.615C229.392 20.6983 228.037 20.02 226.503 19.58C225.005 19.14 223.435 18.92 221.794 18.92C219.547 18.92 217.549 19.305 215.801 20.075C214.053 20.845 212.573 21.9267 211.36 23.32C210.147 24.6767 209.219 26.3083 208.577 28.215C207.971 30.085 207.668 32.12 207.668 34.32C207.668 36.4467 208.006 38.4083 208.684 40.205C209.362 41.965 210.307 43.4867 211.52 44.77C212.733 46.0533 214.196 47.0617 215.908 47.795C217.656 48.4917 219.565 48.84 221.634 48.84C225.308 48.84 228.322 47.85 230.677 45.87C233.031 43.89 234.458 41.0117 234.957 37.235H227.627C227.377 38.995 226.753 40.4067 225.754 41.47C224.791 42.4967 223.399 43.01 221.58 43.01C220.403 43.01 219.404 42.735 218.584 42.185C217.763 41.635 217.103 40.9383 216.604 40.095C216.14 39.215 215.801 38.2433 215.587 37.18C215.373 36.1167 215.266 35.0717 215.266 34.045C215.266 32.9817 215.373 31.9183 215.587 30.855C215.801 29.755 216.158 28.765 216.657 27.885C217.192 26.9683 217.87 26.235 218.691 25.685C219.511 25.0983 220.528 24.805 221.741 24.805C224.987 24.805 226.86 26.4367 227.359 29.7Z" fill="white"/>
<path d="M257.871 30.855H245.511C245.546 30.305 245.653 29.6817 245.832 28.985C246.046 28.2883 246.385 27.6283 246.848 27.005C247.348 26.3817 247.99 25.8683 248.775 25.465C249.595 25.025 250.612 24.805 251.825 24.805C253.68 24.805 255.053 25.3183 255.945 26.345C256.872 27.3717 257.515 28.875 257.871 30.855ZM245.511 35.805H265.47C265.612 33.605 265.434 31.4967 264.935 29.48C264.435 27.4633 263.615 25.6667 262.473 24.09C261.367 22.5133 259.94 21.2667 258.192 20.35C256.444 19.3967 254.393 18.92 252.039 18.92C249.934 18.92 248.008 19.305 246.26 20.075C244.547 20.845 243.067 21.9083 241.818 23.265C240.57 24.585 239.607 26.1617 238.929 27.995C238.251 29.8283 237.912 31.8083 237.912 33.935C237.912 36.135 238.233 38.1517 238.875 39.985C239.553 41.8183 240.499 43.395 241.711 44.715C242.924 46.035 244.405 47.0617 246.153 47.795C247.901 48.4917 249.863 48.84 252.039 48.84C255.178 48.84 257.853 48.1067 260.065 46.64C262.277 45.1733 263.918 42.735 264.988 39.325H258.299C258.05 40.205 257.372 41.0483 256.266 41.855C255.16 42.625 253.84 43.01 252.306 43.01C250.166 43.01 248.525 42.4417 247.383 41.305C246.242 40.1683 245.618 38.335 245.511 35.805Z" fill="white"/>
<path d="M3.34526 0C1.49823 0 0.000909019 1.53902 0.000909019 3.4375C0.000909019 5.33598 1.49823 6.875 3.34526 6.875H14.4931C16.3401 6.875 17.8375 5.33598 17.8375 3.4375C17.8375 1.53902 16.3401 0 14.4931 0H3.34526Z" fill="white"/>
<path d="M33.4858 11.2464C35.219 10.5901 36.1063 8.6139 35.4678 6.83247C34.8293 5.05105 32.9067 4.13897 31.1735 4.79528L2.1891 15.7712C0.455949 16.4275 -0.431419 18.4036 0.207111 20.1851C0.845641 21.9665 2.76827 22.8786 4.50142 22.2223L33.4858 11.2464Z" fill="white"/>
<path d="M33.4858 39.2288C35.219 38.5725 36.1063 36.5964 35.4678 34.8149C34.8293 33.0335 32.9067 32.1214 31.1735 32.7777L2.1891 43.7536C0.455949 44.4099 -0.431419 46.3861 0.207111 48.1675C0.845641 49.949 2.76827 50.861 4.50142 50.2047L33.4858 39.2288Z" fill="white"/>
<path d="M21.1818 48.125C19.3348 48.125 17.8375 49.664 17.8375 51.5625C17.8375 53.461 19.3348 55 21.1818 55H32.3297C34.1767 55 35.674 53.461 35.674 51.5625C35.674 49.664 34.1767 48.125 32.3297 48.125H21.1818Z" fill="white"/>
<path d="M33.5302 24.9801C35.2541 24.2986 36.1141 22.3097 35.4511 20.5378C34.788 18.7658 32.853 17.8819 31.1291 18.5634L2.14471 30.0217C0.420783 30.7032 -0.439226 32.6922 0.223821 34.4641C0.886868 36.236 2.82189 37.12 4.54581 36.4385L33.5302 24.9801Z" fill="white"/>
</g>
</g>
<defs>
<clipPath id="clip0_21_3777">
<rect width="41.7241" height="55" fill="white"/>
</clipPath>
</defs>
</svg>
