<svg width="156" height="156" viewBox="0 0 156 156" fill="none" xmlns="http://www.w3.org/2000/svg">
<g id="Group 1000004784">
<circle id="Ellipse 1" cx="77.5184" cy="78.4813" r="77.5184" fill="url(#paint0_linear_3_57)"/>
<path id="Vector" d="M133.227 80.8961C131.603 88.7452 127.22 93.3041 120.077 94.5728C124.545 97.2465 127.489 100.525 128.909 104.409C130.328 108.293 129.866 113.06 127.521 118.711C126.308 121.594 124.824 124.001 123.068 125.934C121.313 127.867 119.402 129.316 117.336 130.28C115.27 131.245 112.886 131.846 110.185 132.086C107.484 132.325 104.751 132.267 101.985 131.913C99.2199 131.558 96.1178 130.938 92.6792 130.053L87.7035 146.064L78.1634 143.099L83.0611 127.339C79.7571 126.313 77.2444 125.509 75.5228 124.928L70.6057 140.75L61.0656 137.785L66.0413 121.775C65.2979 121.544 64.1861 121.187 62.7058 120.704C61.2255 120.221 60.0931 119.857 59.3084 119.613L46.9186 115.763L52.4098 104.87L59.2862 107.007C61.3511 107.649 62.8805 106.953 63.8743 104.921L71.7184 79.6815L72.7096 79.9896C72.4748 79.8707 72.1509 79.7471 71.7379 79.6187L77.338 61.5992C77.6857 58.5861 76.2902 56.5918 73.1514 55.6163L66.2751 53.4793L69.4752 43.1824L82.5888 47.3267C85.2319 48.1481 87.2414 48.7497 88.6173 49.1314L93.5345 33.3093L103.075 36.2742L98.255 51.7823C101.668 52.7511 104.2 53.4922 105.852 54.0056L110.632 38.623L120.172 41.5879L115.255 57.4099C118.427 58.7169 121.171 60.0862 123.489 61.5179C125.807 62.9497 127.847 64.6166 129.611 66.5188C131.375 68.421 132.571 70.5829 133.2 73.0045C133.829 75.426 133.838 78.0566 133.227 80.8961ZM109.274 110.975C109.742 109.468 109.848 108.033 109.593 106.668C109.338 105.304 108.873 104.103 108.199 103.068C107.524 102.032 106.535 101.024 105.232 100.046C103.928 99.0668 102.696 98.2592 101.535 97.6231C100.374 96.9869 98.9046 96.3236 97.1265 95.6333C95.3484 94.943 93.943 94.4374 92.9106 94.1165C91.8781 93.7957 90.5397 93.4027 88.8954 92.9375C87.251 92.4724 86.2637 92.1885 85.9333 92.0858L79.338 113.307C79.6684 113.41 80.4292 113.658 81.6204 114.051C82.8115 114.444 83.7995 114.763 84.5842 115.007C85.3688 115.251 86.473 115.559 87.8967 115.933C89.3204 116.307 90.5544 116.598 91.5988 116.808C92.6431 117.018 93.8754 117.206 95.2957 117.372C96.716 117.538 97.9531 117.601 99.007 117.561C100.061 117.522 101.178 117.387 102.359 117.157C103.54 116.928 104.551 116.553 105.392 116.034C106.232 115.515 106.998 114.835 107.69 113.994C108.381 113.154 108.909 112.147 109.274 110.975ZM114.163 79.7222C114.593 78.3409 114.715 77.0364 114.53 75.8086C114.346 74.5808 113.989 73.506 113.46 72.5843C112.932 71.6627 112.123 70.7686 111.033 69.9022C109.944 69.0358 108.915 68.3375 107.948 67.8074C106.981 67.2772 105.763 66.7151 104.294 66.1211C102.826 65.527 101.644 65.1025 100.75 64.8475C99.8556 64.5924 98.734 64.2668 97.3853 63.8706C96.0366 63.4744 95.2177 63.2314 94.9286 63.1415L88.9382 82.4168C89.1447 82.481 89.8539 82.7128 91.0657 83.1124C92.2775 83.512 93.2377 83.8104 93.9463 84.0076C94.6549 84.2049 95.7004 84.4839 97.0828 84.8447C98.4652 85.2055 99.6367 85.4433 100.597 85.5583C101.558 85.6732 102.693 85.7735 104.002 85.8591C105.312 85.9447 106.433 85.8688 107.368 85.6313C108.302 85.3938 109.242 85.0662 110.187 84.6484C111.132 84.2307 111.94 83.5982 112.611 82.751C113.281 81.9038 113.799 80.8942 114.163 79.7222Z" fill="white"/>
</g>
<defs>
<linearGradient id="paint0_linear_3_57" x1="142.264" y1="197.402" x2="-17.1648" y2="39.1684" gradientUnits="userSpaceOnUse">
<stop stop-color="#F6EFEF"/>
<stop offset="0.604167"/>
<stop offset="0.699807" stop-color="#252424"/>
<stop offset="1" stop-color="#F6EFEF"/>
</linearGradient>
</defs>
</svg>
