<svg width="80" height="92" viewBox="0 0 80 92" fill="none" xmlns="http://www.w3.org/2000/svg">
<g id="Frame 1000005402" clip-path="url(#clip0_3_60)">
<g id="Vector">
<path d="M139.847 57.7196V47.326H152.909C154.153 47.326 155.337 47.409 156.463 47.5749C157.648 47.6994 158.684 47.9483 159.573 48.3218C160.461 48.6952 161.172 49.2138 161.705 49.8777C162.239 50.5415 162.505 51.3921 162.505 52.4294C162.505 54.2965 161.705 55.645 160.106 56.4748C158.507 57.3046 156.463 57.7196 153.975 57.7196H139.847ZM125.896 39.733V84.1703H156.641C159.484 84.1703 162.239 83.9213 164.904 83.4234C167.629 82.9255 170.028 82.158 172.102 81.1207C174.234 80.0834 175.922 78.7557 177.166 77.1375C178.41 75.4778 179.032 73.5278 179.032 71.2872C179.032 68.5073 178.055 66.1423 176.1 64.1922C174.204 62.2006 171.302 60.8107 167.392 60.0223C170.236 59.068 172.368 57.844 173.79 56.3503C175.271 54.8566 176.011 52.9895 176.011 50.749C176.011 48.6744 175.508 46.9318 174.501 45.5211C173.553 44.1104 172.19 42.9901 170.413 42.1603C168.636 41.289 166.504 40.6666 164.016 40.2932C161.528 39.9198 158.773 39.733 155.752 39.733H125.896ZM139.847 76.5774V64.3789H155.041C158.062 64.3789 160.491 64.8768 162.327 65.8726C164.164 66.8269 165.082 68.4451 165.082 70.7271C165.082 71.8888 164.786 72.8431 164.193 73.59C163.66 74.3368 162.92 74.9385 161.972 75.3949C161.024 75.8098 159.928 76.121 158.684 76.3284C157.44 76.4944 156.137 76.5774 154.775 76.5774H139.847Z" fill="white"/>
<path d="M198.323 68.1131C198.323 66.8269 198.501 65.5614 198.856 64.3167C199.212 63.0719 199.804 61.9724 200.633 61.0181C201.522 60.0638 202.677 59.2962 204.099 58.7153C205.52 58.093 207.298 57.7818 209.43 57.7818C211.563 57.7818 213.34 58.093 214.762 58.7153C216.242 59.2962 217.398 60.0638 218.227 61.0181C219.115 61.9724 219.737 63.0719 220.093 64.3167C220.448 65.5614 220.626 66.8269 220.626 68.1131C220.626 69.3994 220.448 70.6649 220.093 71.9096C219.737 73.1128 219.115 74.2124 218.227 75.2082C217.398 76.1625 216.242 76.93 214.762 77.5109C213.34 78.0918 211.563 78.3822 209.43 78.3822C207.298 78.3822 205.52 78.0918 204.099 77.5109C202.677 76.93 201.522 76.1625 200.633 75.2082C199.804 74.2124 199.212 73.1128 198.856 71.9096C198.501 70.6649 198.323 69.3994 198.323 68.1131ZM185.706 68.1131C185.706 70.6856 186.268 73.0091 187.394 75.0837C188.519 77.1582 190.119 78.9424 192.192 80.4361C194.265 81.8883 196.753 83.0085 199.656 83.7969C202.559 84.5852 205.817 84.9794 209.43 84.9794C213.044 84.9794 216.302 84.5852 219.204 83.7969C222.166 83.0085 224.684 81.8883 226.757 80.4361C228.83 78.9424 230.43 77.1582 231.555 75.0837C232.681 73.0091 233.244 70.6856 233.244 68.1131C233.244 65.5407 232.681 63.2172 231.555 61.1426C230.43 59.0265 228.83 57.2424 226.757 55.7902C224.684 54.2965 222.166 53.1555 219.204 52.3672C216.302 51.5373 213.044 51.1224 209.43 51.1224C205.817 51.1224 202.559 51.5373 199.656 52.3672C196.753 53.1555 194.265 54.2965 192.192 55.7902C190.119 57.2424 188.519 59.0265 187.394 61.1426C186.268 63.2172 185.706 65.5407 185.706 68.1131Z" fill="white"/>
<path d="M284.543 84.1703V51.9937H271.925V68.86C271.925 72.1378 271.155 74.5028 269.615 75.955C268.075 77.3657 265.587 78.0711 262.151 78.0711C259.13 78.0711 257.027 77.4279 255.842 76.1417C254.657 74.814 254.065 72.8224 254.065 70.167V51.9937H241.448V71.7851C241.448 73.7767 241.684 75.6023 242.158 77.262C242.692 78.8801 243.58 80.2701 244.824 81.4319C246.068 82.5521 247.756 83.4234 249.889 84.0458C252.081 84.6682 254.865 84.9794 258.241 84.9794C260.907 84.9794 263.513 84.5645 266.061 83.7346C268.608 82.9048 270.681 81.5563 272.281 79.6892H272.547V84.1703H284.543Z" fill="white"/>
<path d="M294.119 51.9937V84.1703H306.737V67.3041C306.737 64.0262 307.507 61.682 309.047 60.2713C310.587 58.8191 313.075 58.093 316.511 58.093C319.532 58.093 321.635 58.7568 322.82 60.0846C324.004 61.3708 324.597 63.3416 324.597 65.9971V84.1703H337.214V64.3789C337.214 62.3873 336.948 60.5825 336.415 58.9643C335.941 57.3046 335.082 55.9147 333.838 54.7944C332.594 53.6327 330.876 52.7406 328.684 52.1182C326.552 51.4544 323.797 51.1224 320.421 51.1224C317.755 51.1224 315.148 51.5581 312.601 52.4294C310.054 53.2592 307.981 54.6077 306.381 56.4748H306.115V51.9937H294.119Z" fill="white"/>
<path d="M378.068 63.3209H390.419C390.241 61.2463 389.53 59.4622 388.286 57.9685C387.042 56.4333 385.413 55.1678 383.399 54.172C381.445 53.1348 379.194 52.3672 376.646 51.8693C374.158 51.3714 371.552 51.1224 368.827 51.1224C365.095 51.1224 361.778 51.5581 358.875 52.4294C355.972 53.3007 353.514 54.5247 351.5 56.1014C349.486 57.6366 347.946 59.4829 346.879 61.6405C345.872 63.7565 345.369 66.0593 345.369 68.5488C345.369 70.9553 345.932 73.1751 347.057 75.2082C348.183 77.1997 349.753 78.9216 351.767 80.3738C353.781 81.826 356.209 82.967 359.053 83.7969C361.955 84.5852 365.125 84.9794 368.56 84.9794C374.662 84.9794 379.667 83.8591 383.577 81.6186C387.487 79.378 389.856 76.121 390.686 71.8474H378.512C378.098 73.8389 377.061 75.4364 375.402 76.6396C373.803 77.8014 371.493 78.3822 368.472 78.3822C366.517 78.3822 364.858 78.0711 363.496 77.4487C362.133 76.8263 361.037 76.038 360.208 75.0837C359.438 74.0879 358.875 72.9884 358.52 71.7851C358.164 70.5819 357.987 69.3994 357.987 68.2376C357.987 67.0344 358.164 65.8311 358.52 64.6279C358.875 63.3831 359.467 62.2629 360.297 61.2671C361.185 60.2298 362.311 59.4 363.673 58.7776C365.036 58.1137 366.724 57.7818 368.738 57.7818C374.129 57.7818 377.239 59.6282 378.068 63.3209Z" fill="white"/>
<path d="M428.735 64.6279H408.21C408.269 64.0055 408.447 63.3001 408.743 62.5118C409.098 61.7235 409.661 60.9766 410.431 60.2713C411.26 59.5659 412.327 58.985 413.63 58.5286C414.992 58.0307 416.681 57.7818 418.695 57.7818C421.775 57.7818 424.056 58.3627 425.537 59.5244C427.077 60.6862 428.143 62.3873 428.735 64.6279ZM408.21 70.2292H441.353C441.59 67.7397 441.294 65.354 440.464 63.0719C439.635 60.7899 438.273 58.7568 436.377 56.9727C434.541 55.1886 432.171 53.7779 429.269 52.7406C426.366 51.6618 422.96 51.1224 419.05 51.1224C415.555 51.1224 412.356 51.5581 409.454 52.4294C406.61 53.3007 404.152 54.504 402.079 56.0392C400.005 57.5328 398.406 59.317 397.28 61.3915C396.155 63.4661 395.592 65.7066 395.592 68.1131C395.592 70.6026 396.125 72.8846 397.192 74.9592C398.317 77.0338 399.887 78.8179 401.901 80.3116C403.915 81.8053 406.373 82.967 409.276 83.7969C412.179 84.5852 415.437 84.9794 419.05 84.9794C424.263 84.9794 428.706 84.1495 432.379 82.4899C436.051 80.8302 438.776 78.0711 440.553 74.2124H429.446C429.032 75.2082 427.906 76.1625 426.07 77.0753C424.233 77.9466 422.042 78.3822 419.494 78.3822C415.94 78.3822 413.215 77.7391 411.32 76.4529C409.424 75.1667 408.387 73.0921 408.21 70.2292Z" fill="white"/>
<path d="M6.07894 29.7129C3.01183 29.7129 0.525435 31.4544 0.525435 33.6027C0.525435 35.751 3.01183 37.4925 6.07894 37.4925H24.5906C27.6578 37.4925 30.1441 35.751 30.1441 33.6027C30.1441 31.4544 27.6578 29.7129 24.5906 29.7129H6.07894Z" fill="white"/>
<path d="M56.1292 42.4391C59.0072 41.6964 60.4808 39.4602 59.4205 37.4444C58.3601 35.4286 55.1675 34.3965 52.2895 35.1391L4.15907 47.5592C1.28106 48.3019 -0.192472 50.5381 0.867847 52.554C1.92817 54.5698 5.12081 55.6019 7.99882 54.8592L56.1292 42.4391Z" fill="white"/>
<path d="M56.1292 74.1036C59.0072 73.3609 60.4808 71.1247 59.4205 69.1088C58.3601 67.093 55.1675 66.0609 52.2895 66.8036L4.15907 79.2237C1.28106 79.9664 -0.192472 82.2026 0.867847 84.2184C1.92817 86.2342 5.12081 87.2663 7.99882 86.5237L56.1292 74.1036Z" fill="white"/>
<path d="M35.6977 84.1703C32.6305 84.1703 30.1441 85.9118 30.1441 88.0601C30.1441 90.2084 32.6305 91.9499 35.6977 91.9499H54.2094C57.2765 91.9499 59.7629 90.2084 59.7629 88.0601C59.7629 85.9118 57.2765 84.1703 54.2094 84.1703H35.6977Z" fill="white"/>
<path d="M56.2029 57.98C59.0656 57.2088 60.4937 54.9582 59.3927 52.9531C58.2917 50.948 55.0784 49.9477 52.2158 50.7189L4.08534 63.6849C1.22266 64.4561 -0.205437 66.7067 0.895595 68.7118C1.99663 70.7169 5.20985 71.7172 8.07253 70.946L56.2029 57.98Z" fill="white"/>
</g>
</g>
<defs>
<clipPath id="clip0_3_60">
<rect width="78.7336" height="91.331" fill="white" transform="translate(0.52417 0.469238)"/>
</clipPath>
</defs>
</svg>
